<svg width="24" height="24" viewBox="0 0 24 24" fill="none" xmlns="http://www.w3.org/2000/svg">
<rect width="24" height="24" rx="4" fill="#56BCD9"/>
<path d="M12 7C6.3925 7 2 9.19615 2 12C2 14.8038 6.3925 17 12 17C17.6075 17 22 14.8038 22 12C22 9.19615 17.6075 7 12 7ZM10.9617 8.53846H12.0533L11.7067 10.0769H12.6817C13.3 10.0769 13.715 10.1569 13.9517 10.3562C14.1825 10.5531 14.2525 10.8762 14.16 11.3162L13.7267 13.1538H12.6167L13.0158 11.4546C13.0642 11.2215 13.045 11.0592 12.96 10.9738C12.8758 10.8885 12.69 10.8462 12.4117 10.8462H11.5375L11.01 13.1538H9.91667L10.9617 8.53846V8.53846ZM6.16667 10.0769H8.38833C9.4475 10.0769 10.0892 10.7323 9.83833 11.71C9.54667 12.8462 8.76667 13.1538 7.33 13.1538H6.64333L6.42583 14.3077H5.32167L6.16667 10.0769ZM14.9167 10.0769H17.1383C18.1975 10.0769 18.8392 10.7323 18.5883 11.71C18.2967 12.8462 17.5158 13.1538 16.08 13.1538H15.3933L15.1758 14.3077H14.0717L14.9167 10.0769ZM7.1125 10.8462L6.79833 12.3846H7.51083C8.1275 12.3846 8.70083 12.32 8.79667 11.4708C8.8325 11.1423 8.68417 10.8462 7.97167 10.8462H7.1125ZM15.8625 10.8462L15.5483 12.3846H16.2608C16.8775 12.3846 17.4508 12.32 17.5467 11.4708C17.5825 11.1423 17.435 10.8462 16.7217 10.8462H15.8625V10.8462Z" fill="#0D1117"/>
</svg>
