<svg width="24" height="24" viewBox="0 0 24 24" fill="none" xmlns="http://www.w3.org/2000/svg">
<rect width="24" height="24" rx="4" fill="#56BCD9"/>
<path d="M17.3126 9.17143C18.0117 8.78571 18.501 8.20714 18.7806 7.5C19.0602 6.79286 19.0602 6.08571 18.8505 5.37857C18.6408 4.67143 18.1515 4.09286 17.5224 3.64286C16.8932 3.19286 16.0544 3 15.2855 3H8.85436C8.01552 3 7.24658 3.25714 6.61745 3.64286C5.84852 4.09286 5.4291 4.73571 5.14948 5.37857C4.93977 6.08571 4.93977 6.85714 5.21939 7.5C5.499 8.20714 5.98832 8.78571 6.68735 9.17143C6.19803 9.49286 5.70871 9.87857 5.4291 10.3929C5.14948 10.9071 5.00968 11.4214 5.00968 12C5.00968 12.5786 5.14948 13.0929 5.4291 13.6071C5.70871 14.1214 6.12813 14.5071 6.68735 14.8286C5.98832 15.2143 5.499 15.7929 5.21939 16.5C4.93977 17.2071 4.93977 17.9143 5.14948 18.6214C5.35919 19.3286 5.84852 19.9071 6.54755 20.3571C7.17668 20.8071 8.01552 21 8.78445 21C9.7631 21 10.7417 20.6143 11.5107 20.0357C12.2097 19.3929 12.6291 18.5571 12.6291 17.6571V14.5714C13.3282 15.15 14.2369 15.4714 15.1456 15.4714H15.2155C16.0544 15.4714 16.8233 15.2143 17.4525 14.8286C18.0816 14.3786 18.5709 13.8 18.7806 13.0929C18.9903 12.3857 18.9903 11.6786 18.7107 10.9714C18.501 10.1357 17.9418 9.55714 17.3126 9.17143V9.17143ZM12.6291 4.09286H15.2155C15.5651 4.09286 15.9146 4.09286 16.1942 4.22143C16.5437 4.35 16.8233 4.47857 17.033 4.73571C17.3126 4.92857 17.4525 5.18571 17.5923 5.50714C17.7321 5.82857 17.802 6.08571 17.802 6.40714C17.802 6.72857 17.7321 7.05 17.5923 7.30714C17.4525 7.56429 17.2427 7.82143 17.033 8.07857C16.7534 8.27143 16.4738 8.46429 16.1942 8.59286C15.8447 8.72143 15.4952 8.72143 15.2155 8.72143H12.6291V4.09286V4.09286ZM8.78445 4.09286H11.3709V8.59286H8.78445C8.15532 8.59286 7.52619 8.33571 7.10677 7.88571C6.61745 7.5 6.40774 6.92143 6.40774 6.34286C6.40774 5.76429 6.68735 5.18571 7.10677 4.8C7.52619 4.41429 8.15532 4.15714 8.78445 4.09286V4.09286ZM6.26794 12C6.26794 11.4214 6.54755 10.8429 7.03687 10.3929C7.52619 9.94286 8.15532 9.75 8.85436 9.75H11.4408V14.25H8.85436C8.15532 14.25 7.52619 13.9929 7.03687 13.6071C6.54755 13.1571 6.26794 12.5786 6.26794 12V12ZM11.3709 17.5929C11.3709 18.2357 11.0913 18.8143 10.6019 19.2C10.1126 19.65 9.48348 19.8429 8.78445 19.8429C8.43494 19.8429 8.08542 19.8429 7.80581 19.7143C7.45629 19.5857 7.17668 19.4571 6.96697 19.2643C6.68736 19.0714 6.54755 18.8143 6.40774 18.4929C6.26794 18.2357 6.19803 17.9143 6.19803 17.5929C6.19803 17.2714 6.26794 16.95 6.40774 16.6929C6.54755 16.4357 6.75726 16.1786 6.96697 15.9214C7.24658 15.7286 7.52619 15.5357 7.80581 15.4071C8.15532 15.2786 8.50484 15.2786 8.78445 15.2786H11.3709V17.5929V17.5929ZM15.2155 14.25H15.1456C14.5165 14.25 13.8874 13.9929 13.468 13.5429C13.0485 13.0929 12.7689 12.5786 12.7689 12C12.7689 11.4214 13.0485 10.8429 13.468 10.4571C13.8874 10.0071 14.5165 9.81429 15.1456 9.75H15.2155C15.5651 9.75 15.9146 9.75 16.1942 9.87857C16.5437 10.0071 16.8233 10.1357 17.033 10.3929C17.3126 10.5857 17.4525 10.8429 17.5923 11.1643C17.7321 11.4214 17.802 11.7429 17.802 12.0643C17.802 12.3857 17.7321 12.7071 17.5923 12.9643C17.4525 13.2214 17.2427 13.4786 17.033 13.7357C16.7534 13.9286 16.4738 14.1214 16.1942 14.25H15.2155V14.25Z" fill="#0D1117"/>
</svg>
