<svg width="24" height="24" viewBox="0 0 24 24" fill="none" xmlns="http://www.w3.org/2000/svg">
<rect width="24" height="24" rx="4" fill="#56BCD9"/>
<path d="M22.2124 12.0021C22.2124 10.663 20.5356 9.39386 17.9644 8.60726C18.5582 5.98723 18.2946 3.90198 17.1324 3.23413C16.8508 3.0764 16.532 2.99701 16.2093 3.00421V3.92219C16.3988 3.92219 16.5513 3.96009 16.6793 4.02999C17.2393 4.35171 17.4827 5.57456 17.2932 7.1486C17.2477 7.536 17.1736 7.94362 17.0827 8.35966C16.2217 8.15218 15.3478 8.00222 14.4669 7.91078C13.942 7.18674 13.3695 6.49855 12.753 5.85079C14.0963 4.60268 15.357 3.91882 16.2144 3.91882V3C15.0808 3 13.5977 3.80765 12.0978 5.20821C10.5987 3.81692 9.11477 3.01684 7.98203 3.01684V3.93482C8.83517 3.93482 10.1001 4.61531 11.4434 5.855C10.8665 6.46138 10.2896 7.1486 9.74136 7.91078C8.85861 8.0012 7.98317 8.1526 7.12132 8.36387C7.03024 7.96955 6.95857 7.571 6.90656 7.16965C6.71286 5.59477 6.95204 4.37192 7.50873 4.04683C7.63168 3.97272 7.79254 3.93904 7.98203 3.93904V3.02105C7.63674 3.02105 7.3226 3.09517 7.05142 3.25097C5.89342 3.91882 5.63402 5.99902 6.23113 8.61147C3.66837 9.40313 2 10.6672 2 12.0021C2 13.3412 3.67679 14.6103 6.24798 15.3961C5.65424 18.017 5.91784 20.1022 7.08005 20.7692C7.34787 20.9259 7.66116 21 8.00646 21C9.14004 21 10.6231 20.1923 12.1231 18.7918C13.6221 20.1839 15.1052 20.9832 16.2388 20.9832C16.564 20.99 16.8851 20.9104 17.1694 20.7524C18.3274 20.0854 18.5868 18.0052 17.9897 15.3927C20.5441 14.6061 22.2124 13.337 22.2124 12.0021ZM16.8477 9.25406C16.6877 9.80473 16.5022 10.3477 16.2919 10.8812C15.9475 10.2114 15.5695 9.55957 15.1591 8.92813C15.7444 9.01488 16.3087 9.12184 16.8485 9.25406H16.8477ZM14.9612 13.6418C14.6527 14.1804 14.3215 14.7055 13.9683 15.2159C12.7322 15.3248 11.4889 15.3262 10.2526 15.2201C9.5434 14.2071 8.9232 13.1346 8.39891 12.0147C8.9224 10.8922 9.53996 9.81597 10.245 8.79759C11.4808 8.68842 12.7238 8.68673 13.9599 8.79254C14.3018 9.28269 14.6361 9.80653 14.957 10.359C15.2703 10.898 15.555 11.4454 15.8143 11.9979C15.5521 12.5571 15.2675 13.1055 14.9612 13.6418V13.6418ZM16.2919 13.1062C16.5142 13.6578 16.7045 14.2103 16.8603 14.7459C16.3213 14.8782 15.752 14.9893 15.1633 15.0752C15.572 14.4381 15.9486 13.7809 16.2919 13.1062V13.1062ZM12.1146 17.5024C11.7314 17.1066 11.3482 16.6661 10.9693 16.1835C11.3398 16.2004 11.7188 16.213 12.102 16.213C12.4894 16.213 12.8726 16.2046 13.2474 16.1835C12.8768 16.6661 12.4936 17.1066 12.1146 17.5024ZM9.04908 15.0752C8.48123 14.993 7.91749 14.8845 7.35966 14.7502C7.51209 14.2187 7.70159 13.6705 7.9155 13.1231C8.08478 13.4515 8.26248 13.7816 8.45618 14.1118C8.64989 14.4411 8.84696 14.7628 9.04908 15.0752ZM12.0936 6.5018C12.4768 6.89763 12.86 7.33809 13.2389 7.82066C12.8684 7.80382 12.4894 7.79119 12.1062 7.79119C11.7188 7.79119 11.3356 7.79961 10.9608 7.82066C11.3314 7.33809 11.7146 6.89763 12.0936 6.5018ZM9.04487 8.92898C8.6363 9.56477 8.25966 10.2205 7.91634 10.8938C7.70008 10.3569 7.51036 9.80963 7.34787 9.25406C7.88687 9.12605 8.45618 9.01488 9.04487 8.92898ZM5.31652 14.0865C3.85786 13.465 2.91461 12.6489 2.91461 12.0021C2.91461 11.3553 3.85786 10.535 5.31652 9.9177C5.67024 9.76526 6.05764 9.62883 6.45768 9.50166C6.69265 10.3085 7.00173 11.149 7.38408 12.0105C7.02309 12.8209 6.7178 13.6549 6.47031 14.5068C6.07908 14.3856 5.69402 14.2454 5.31652 14.0865V14.0865ZM7.53315 19.9734C6.9731 19.6533 6.72971 18.4288 6.9192 16.8556C6.96468 16.4682 7.03879 16.0597 7.12974 15.6437C7.93656 15.8416 8.81832 15.9941 9.74557 16.0934C10.2704 16.8175 10.8429 17.5056 11.4594 18.1534C10.1161 19.4015 8.85538 20.0854 7.99804 20.0854C7.83629 20.0872 7.6766 20.049 7.53315 19.9742V19.9734ZM17.3059 16.8346C17.4996 18.4086 17.2604 19.6323 16.7037 19.9574C16.5807 20.0315 16.4199 20.0643 16.2304 20.0643C15.3773 20.0643 14.1123 19.3847 12.769 18.1442C13.3829 17.4991 13.9516 16.8125 14.4711 16.0892C15.3538 15.9988 16.2292 15.8474 17.0911 15.6361C17.1863 16.0522 17.2595 16.4514 17.3059 16.8346V16.8346ZM18.8917 14.0865C18.538 14.2389 18.1506 14.3754 17.7505 14.5025C17.4987 13.6463 17.1892 12.8081 16.8241 11.9937C17.2031 11.1372 17.5071 10.3009 17.7379 9.49745C18.1304 9.61899 18.5168 9.75923 18.8959 9.9177C20.3546 10.5392 21.2978 11.3553 21.2978 12.0021C21.2936 12.6489 20.3503 13.4692 18.8917 14.0865V14.0865Z" fill="#0D1117"/>
<path d="M12.1021 13.8852C12.6016 13.8852 13.0805 13.6868 13.4337 13.3337C13.7868 12.9805 13.9852 12.5015 13.9852 12.0021C13.9852 11.5027 13.7868 11.0237 13.4337 10.6705C13.0805 10.3174 12.6016 10.119 12.1021 10.119C11.6027 10.119 11.1237 10.3174 10.7705 10.6705C10.4174 11.0237 10.219 11.5027 10.219 12.0021C10.219 12.5015 10.4174 12.9805 10.7705 13.3337C11.1237 13.6868 11.6027 13.8852 12.1021 13.8852V13.8852Z" fill="#0D1117"/>
</svg>
